<?xml version="1.0" encoding="utf-8"?>
<!-- Generator: Adobe Illustrator 23.0.1, SVG Export Plug-In . SVG Version: 6.00 Build 0)  -->
<svg version="1.1" id="Слой_1" xmlns="http://www.w3.org/2000/svg" xmlns:xlink="http://www.w3.org/1999/xlink" x="0px" y="0px"
	 viewBox="0 0 151.54 112.42" style="enable-background:new 0 0 151.54 112.42;" xml:space="preserve">
<style type="text/css">
	.st0{fill:#666666;}
	.st1{fill:#BDEEFF;}
	.st2{fill:#E1F8F9;}
	.st3{fill:#F7931E;}
	.st4{fill:#999999;}
	.st5{fill:#FFFFFF;}
	.st6{fill:#CCCCCC;}
	.st7{fill:#E6E6E6;}
	.st8{fill:#FF0000;}
	.st9{fill:#A7F1FF;}
	.st10{fill:#3C4F3F;}
	.st11{fill:#D8FAF8;}
	.st12{fill:#F58910;}
</style>
<g>
	<path class="st0" d="M32.4,67.73h-2.5c0,0.89-0.38,1.7-1.07,2.35c-0.69,0.64-1.68,1.06-2.81,1.06c-1.13,0-2.12-0.42-2.81-1.06
		c-0.69-0.65-1.06-1.45-1.07-2.35c0-0.89,0.38-1.7,1.07-2.35c0.69-0.64,1.68-1.06,2.81-1.06c1.13,0,2.12,0.42,2.81,1.06
		c0.69,0.65,1.06,1.45,1.07,2.35H32.4h2.5c0-2.37-1.05-4.52-2.67-6.01c-1.62-1.5-3.82-2.4-6.21-2.4c-2.39,0-4.59,0.9-6.21,2.4
		c-1.62,1.49-2.67,3.64-2.67,6.01c0,2.37,1.05,4.52,2.67,6.01c1.62,1.5,3.82,2.4,6.21,2.4c2.39,0,4.59-0.9,6.21-2.4
		c1.62-1.49,2.67-3.64,2.67-6.01H32.4z"/>
	<path class="st0" d="M26.5,62.31c-7.05,3.73-13.46,7.63-18.25,11.64C5.86,75.96,3.87,78,2.41,80.14c-0.73,1.07-1.32,2.17-1.75,3.32
		C0.24,84.6,0,85.8,0,87.02c0,0.48,0.04,0.97,0.12,1.46c0.2,1.2,0.64,2.35,1.26,3.4c1.17,1.98,2.94,3.65,5.12,5.16
		c3.83,2.63,9.02,4.81,15.22,6.72c9.3,2.84,20.89,4.99,33.3,6.45c12.41,1.46,25.64,2.21,38.18,2.21c14.45,0,27.94-1,38.28-3.13
		c5.17-1.07,9.56-2.42,12.97-4.17c1.7-0.88,3.17-1.87,4.36-3.05c1.18-1.17,2.1-2.58,2.5-4.2c0.16-0.62,0.23-1.26,0.23-1.89
		c0-1.09-0.22-2.16-0.58-3.18c-0.65-1.79-1.74-3.48-3.12-5.15c-2.09-2.5-4.89-4.98-8.18-7.48c-3.29-2.49-7.07-4.99-11.11-7.45
		l-2.6,4.27c5.99,3.64,11.34,7.36,15.06,10.78c1.86,1.7,3.31,3.33,4.24,4.76c0.46,0.71,0.8,1.37,1,1.95
		c0.21,0.58,0.29,1.07,0.29,1.49c0,0.24-0.03,0.47-0.08,0.68c-0.14,0.55-0.47,1.16-1.17,1.86c-1.21,1.23-3.54,2.56-6.75,3.69
		c-4.8,1.71-11.5,3.04-19.3,3.9c-7.8,0.87-16.71,1.3-26.04,1.3c-20.04,0-42.02-1.98-59.09-5.65c-8.53-1.83-15.85-4.1-20.98-6.65
		c-2.57-1.27-4.58-2.61-5.92-3.91c-0.67-0.65-1.17-1.28-1.52-1.87c-0.35-0.59-0.54-1.14-0.63-1.67C5.02,87.46,5,87.25,5,87.02
		c0-0.56,0.11-1.16,0.36-1.85c0.43-1.19,1.32-2.59,2.65-4.09c1.99-2.24,4.94-4.67,8.53-7.1c3.58-2.43,7.79-4.88,12.3-7.26
		L26.5,62.31L26.5,62.31z"/>
	<path class="st1" d="M76.23,94.71h-39.6c-7.47,0-13.52-6.05-13.52-13.52V14.02c0-7.47,6.05-13.52,13.52-13.52h39.6
		c7.47,0,13.52,6.05,13.52,13.52v67.17C89.75,88.66,83.69,94.71,76.23,94.71"/>
	<path class="st0" d="M76.23,94.71v-0.5h-39.6c-3.6,0-6.85-1.46-9.21-3.81c-2.36-2.36-3.81-5.61-3.81-9.21V14.02
		c0-3.6,1.46-6.85,3.81-9.21C29.78,2.46,33.03,1,36.63,1h39.6c3.6,0,6.85,1.46,9.21,3.81c2.36,2.36,3.81,5.61,3.81,9.21v67.17
		c0,3.6-1.46,6.85-3.81,9.21c-2.36,2.36-5.61,3.81-9.21,3.81V94.71v0.5c7.74,0,14.02-6.28,14.02-14.02V14.02
		C90.25,6.28,83.97,0,76.23,0h-39.6c-7.74,0-14.02,6.28-14.02,14.02v67.17c0,7.74,6.28,14.02,14.02,14.02h39.6V94.71"/>
	<polyline class="st2" points="80.36,70.81 32.49,70.81 32.49,11.1 80.36,11.1 80.36,70.81 	"/>
	<polyline class="st0" points="80.36,70.81 80.36,70.31 32.99,70.31 32.99,11.6 79.86,11.6 79.86,70.81 80.36,70.81 80.36,70.31 
		80.36,70.81 80.86,70.81 80.86,10.6 31.99,10.6 31.99,71.31 80.86,71.31 80.86,70.81 80.36,70.81 	"/>
	<path class="st3" d="M63.42,83.19c0,3.86-3.13,6.99-6.99,6.99c-3.86,0-6.99-3.13-6.99-6.99c0-3.86,3.13-6.99,6.99-6.99
		C60.29,76.2,63.42,79.33,63.42,83.19"/>
	<path class="st0" d="M63.42,83.19h-0.5c0,1.79-0.73,3.41-1.9,4.59c-1.18,1.18-2.79,1.9-4.59,1.9c-1.79,0-3.41-0.73-4.59-1.9
		c-1.18-1.18-1.9-2.79-1.9-4.59c0-1.79,0.73-3.41,1.9-4.59c1.18-1.18,2.8-1.9,4.59-1.9c1.79,0,3.41,0.73,4.59,1.9
		c1.18,1.18,1.9,2.8,1.9,4.59H63.42h0.5c0-4.14-3.35-7.49-7.49-7.49c-4.14,0-7.49,3.35-7.49,7.49c0,4.14,3.35,7.49,7.49,7.49
		c4.14,0,7.49-3.35,7.49-7.49H63.42"/>
	<path class="st3" d="M79.41,83.29c0,2.01-1.63,3.64-3.64,3.64c-2.01,0-3.64-1.63-3.64-3.64c0-2.01,1.63-3.64,3.64-3.64
		C77.78,79.65,79.41,81.28,79.41,83.29"/>
	<path class="st0" d="M79.41,83.29h-0.5c0,1.73-1.41,3.14-3.14,3.14c-1.73,0-3.14-1.41-3.14-3.14c0-1.73,1.41-3.13,3.14-3.14
		c1.73,0,3.14,1.41,3.14,3.14H79.41h0.5c0-2.29-1.85-4.14-4.14-4.14c-2.29,0-4.14,1.85-4.14,4.14c0,2.29,1.85,4.14,4.14,4.14
		c2.29,0,4.14-1.85,4.14-4.14H79.41"/>
	<path class="st3" d="M40.73,83.29c0,2.01-1.63,3.64-3.64,3.64c-2.01,0-3.64-1.63-3.64-3.64c0-2.01,1.63-3.64,3.64-3.64
		C39.1,79.65,40.73,81.28,40.73,83.29"/>
	<path class="st0" d="M40.73,83.29h-0.5c0,1.73-1.4,3.14-3.14,3.14c-1.73,0-3.14-1.41-3.14-3.14c0-1.73,1.41-3.13,3.14-3.14
		c1.73,0,3.14,1.41,3.14,3.14H40.73h0.5c0-2.29-1.85-4.14-4.14-4.14c-2.29,0-4.14,1.85-4.14,4.14c0,2.29,1.85,4.14,4.14,4.14
		c2.29,0,4.14-1.85,4.14-4.14H40.73"/>
	<path class="st4" d="M148.19,5.67c0,2.26-9.92,4.08-22.15,4.08S103.9,7.93,103.9,5.67c0-2.26,9.92-4.08,22.15-4.08
		S148.19,3.41,148.19,5.67z"/>
	<path class="st0" d="M148.19,5.67h-0.5c0,0.09-0.05,0.24-0.28,0.45c-0.41,0.37-1.31,0.81-2.57,1.19
		c-3.79,1.15-10.81,1.95-18.8,1.95c-6.09,0-11.61-0.46-15.57-1.19c-1.98-0.36-3.58-0.8-4.64-1.27c-0.53-0.23-0.92-0.47-1.16-0.68
		c-0.24-0.22-0.29-0.36-0.28-0.45c0-0.09,0.05-0.24,0.28-0.45c0.41-0.37,1.31-0.81,2.57-1.19c3.79-1.15,10.81-1.95,18.8-1.95
		c6.09,0,11.61,0.46,15.57,1.19c1.98,0.36,3.58,0.8,4.64,1.27c0.53,0.23,0.92,0.47,1.16,0.68c0.24,0.22,0.29,0.36,0.28,0.45H148.19
		h0.5c0-0.48-0.26-0.88-0.62-1.19c-0.63-0.56-1.62-0.99-2.95-1.4c-3.98-1.2-11.02-1.99-19.09-1.99c-6.14,0-11.7,0.46-15.75,1.2
		c-2.03,0.37-3.68,0.82-4.86,1.33c-0.59,0.26-1.07,0.53-1.43,0.85c-0.35,0.32-0.61,0.72-0.62,1.19c0,0.48,0.26,0.88,0.62,1.19
		c0.63,0.56,1.62,0.99,2.95,1.4c3.98,1.2,11.02,1.99,19.09,1.99c6.14,0,11.7-0.46,15.75-1.2c2.03-0.37,3.68-0.82,4.86-1.33
		c0.59-0.26,1.07-0.53,1.43-0.85c0.35-0.32,0.61-0.72,0.62-1.19H148.19z"/>
	<path class="st5" d="M148.19,77.83c0,2.26-9.92,4.08-22.15,4.08s-22.15-1.83-22.15-4.08s9.92-4.08,22.15-4.08
		S148.19,75.57,148.19,77.83z"/>
	<path class="st0" d="M148.19,77.83h-0.5c0,0.09-0.05,0.24-0.28,0.45c-0.41,0.37-1.31,0.81-2.57,1.19
		c-3.79,1.15-10.81,1.95-18.8,1.95c-6.09,0-11.61-0.46-15.57-1.19c-1.98-0.36-3.58-0.8-4.64-1.27c-0.53-0.23-0.92-0.47-1.16-0.68
		c-0.24-0.22-0.29-0.36-0.28-0.45c0-0.09,0.05-0.24,0.28-0.45c0.41-0.37,1.31-0.81,2.57-1.19c3.79-1.15,10.81-1.95,18.8-1.95
		c6.09,0,11.61,0.46,15.57,1.19c1.98,0.36,3.58,0.8,4.64,1.27c0.53,0.23,0.92,0.47,1.16,0.68c0.24,0.22,0.29,0.36,0.28,0.45H148.19
		h0.5c0-0.48-0.26-0.88-0.62-1.19c-0.63-0.56-1.62-0.99-2.95-1.4c-3.98-1.2-11.02-1.99-19.09-1.99c-6.14,0-11.7,0.46-15.75,1.2
		c-2.03,0.37-3.68,0.82-4.86,1.33c-0.59,0.26-1.07,0.53-1.43,0.85c-0.35,0.32-0.61,0.72-0.62,1.19c0,0.48,0.26,0.88,0.62,1.19
		c0.63,0.56,1.62,0.99,2.95,1.4c3.98,1.2,11.02,1.99,19.09,1.99c6.14,0,11.7-0.46,15.75-1.2c2.03-0.37,3.68-0.82,4.86-1.33
		c0.59-0.26,1.07-0.53,1.43-0.85c0.35-0.32,0.61-0.72,0.62-1.19H148.19z"/>
	<path class="st6" d="M148.19,77.03c0,0,2.14,5-22.15,5s-18.99-72.16,0-72.16s22.15-5,22.15-5V77.03z"/>
	<path class="st0" d="M148.19,77.03l-0.46,0.2l0.22-0.09l-0.23,0.08l0.01,0.02l0.22-0.09l-0.23,0.08l0.01,0.12
		c0,0.15-0.04,0.43-0.43,0.85c-0.58,0.62-2.03,1.48-5.27,2.16c-3.24,0.68-8.27,1.19-16,1.19c-2.73,0-5.05-0.94-7.03-2.63
		c-2.98-2.53-5.19-6.79-6.63-12.01c-1.44-5.21-2.13-11.37-2.13-17.67c0-9.48,1.55-19.27,4.34-26.65c1.39-3.69,3.09-6.77,5.03-8.9
		c1.94-2.13,4.08-3.3,6.42-3.3c9.54,0,15.14-1.25,18.38-2.53c3.24-1.28,4.13-2.6,4.19-2.7l-0.42-0.27h-0.5v72.16l0.04,0.2
		L148.19,77.03h0.5V4.88c0-0.22-0.15-0.42-0.36-0.48c-0.21-0.06-0.44,0.03-0.56,0.21l0.25,0.16l-0.24-0.16l0,0.01l0.25,0.16
		l-0.24-0.16l-0.04,0.05c-0.19,0.24-1.24,1.42-4.44,2.54c-3.19,1.12-8.53,2.18-17.25,2.18c-2.69,0-5.11,1.37-7.16,3.63
		c-3.09,3.41-5.47,8.86-7.11,15.27c-1.64,6.41-2.51,13.76-2.51,20.95c0,8.49,1.22,16.75,3.91,22.93c1.34,3.09,3.06,5.68,5.2,7.5
		c2.14,1.82,4.71,2.87,7.68,2.87c10.36,0,15.94-0.9,19.01-1.97c1.53-0.54,2.44-1.12,2.99-1.69c0.55-0.57,0.71-1.14,0.7-1.54
		c0-0.27-0.07-0.45-0.09-0.5L148.19,77.03h0.5H148.19z"/>
	<path class="st7" d="M126.05,81.83c-18.64,0-22.15-4-22.15-4V5.67c0,0,2.11,4,22.15,4C134.97,9.67,134.12,81.83,126.05,81.83z"/>
	<path class="st0" d="M126.05,81.83v-0.5c-9.28,0-14.77-1-17.91-1.98c-1.57-0.49-2.55-0.97-3.14-1.33
		c-0.29-0.18-0.48-0.32-0.59-0.41l-0.11-0.1l-0.02-0.02l0,0l-0.23,0.21l0.23-0.2l0,0l-0.23,0.21l0.23-0.2l-0.38,0.33h0.5V5.67h-0.5
		l-0.44,0.23c0.08,0.15,0.74,1.22,3.84,2.24c3.11,1.02,8.69,2.02,18.75,2.03c0.37,0,0.74,0.17,1.16,0.61
		c0.72,0.76,1.44,2.31,2.04,4.42c1.81,6.34,2.69,17.69,2.68,29.2c0,9.22-0.56,18.56-1.63,25.57c-0.53,3.5-1.2,6.42-1.97,8.43
		c-0.38,1-0.8,1.77-1.2,2.26c-0.41,0.49-0.76,0.67-1.08,0.67V81.83v0.5c0.72,0,1.34-0.42,1.85-1.03c0.89-1.09,1.59-2.89,2.22-5.27
		c1.85-7.13,2.81-19.47,2.81-31.62c0-8.81-0.51-17.51-1.56-24.04c-0.53-3.27-1.19-5.99-2.02-7.94c-0.42-0.97-0.87-1.76-1.4-2.33
		c-0.53-0.57-1.17-0.93-1.89-0.93c-9.99,0-15.48-1-18.43-1.97c-1.48-0.49-2.32-0.97-2.78-1.3c-0.23-0.17-0.36-0.3-0.43-0.38
		l-0.06-0.08l-0.01-0.01l-0.24,0.15l0.25-0.13l-0.01-0.02l-0.24,0.15l0.25-0.13c-0.11-0.2-0.34-0.31-0.56-0.25
		c-0.22,0.06-0.38,0.26-0.38,0.49v72.16c0,0.12,0.04,0.24,0.12,0.33c0.16,0.17,3.83,4.17,22.52,4.17V81.83z"/>
	<path class="st8" d="M44.5,59.83c0-1.39-1.13-2.51-2.51-2.51c-0.46,0-0.89,0.25-1.26,0.46c-0.37-0.21-0.8-0.46-1.26-0.46
		c-1.39,0-2.51,1.13-2.51,2.51c0,0.73,0.31,1.38,0.81,1.84l2.94,2.84l2.98-2.84C44.18,61.22,44.5,60.56,44.5,59.83z"/>
	<g>
		<path class="st0" d="M37.29,25.46c0.27,0.18,0.67,0.31,1.09,0.31c0.62,0,0.99-0.33,0.99-0.81c0-0.43-0.25-0.69-0.89-0.93
			c-0.77-0.28-1.25-0.69-1.25-1.34c0-0.74,0.61-1.28,1.53-1.28c0.48,0,0.83,0.11,1.04,0.23l-0.17,0.5
			c-0.15-0.09-0.46-0.22-0.89-0.22c-0.64,0-0.89,0.39-0.89,0.71c0,0.44,0.29,0.66,0.94,0.91c0.8,0.31,1.2,0.69,1.2,1.39
			c0,0.73-0.53,1.37-1.65,1.37c-0.46,0-0.95-0.14-1.21-0.31L37.29,25.46z"/>
		<path class="st0" d="M41.87,26.2v-2l-1.5-2.72h0.7l0.67,1.3c0.17,0.36,0.32,0.64,0.47,0.97h0.01c0.13-0.31,0.29-0.62,0.48-0.97
			l0.68-1.3h0.69l-1.58,2.71v2.01H41.87z"/>
		<path class="st0" d="M44.43,25.46c0.27,0.18,0.67,0.31,1.09,0.31c0.62,0,0.99-0.33,0.99-0.81c0-0.43-0.25-0.69-0.89-0.93
			c-0.77-0.28-1.25-0.69-1.25-1.34c0-0.74,0.61-1.28,1.53-1.28c0.48,0,0.83,0.11,1.04,0.23l-0.17,0.5
			c-0.15-0.09-0.46-0.22-0.89-0.22c-0.64,0-0.89,0.39-0.89,0.71c0,0.44,0.29,0.66,0.94,0.91c0.8,0.31,1.2,0.69,1.2,1.39
			c0,0.73-0.53,1.37-1.65,1.37c-0.46,0-0.95-0.14-1.21-0.31L44.43,25.46z"/>
	</g>
	<g>
		<path class="st0" d="M37.34,39.55c0.37-0.06,0.81-0.1,1.3-0.1c0.88,0,1.5,0.21,1.91,0.59c0.43,0.39,0.67,0.93,0.67,1.7
			c0,0.77-0.25,1.4-0.68,1.83c-0.45,0.44-1.18,0.68-2.09,0.68c-0.44,0-0.8-0.02-1.11-0.06V39.55z M37.95,43.73
			c0.15,0.02,0.38,0.03,0.62,0.03c1.31,0,2.01-0.73,2.01-2c0.01-1.11-0.62-1.82-1.91-1.82c-0.32,0-0.55,0.03-0.71,0.06V43.73z"/>
		<path class="st0" d="M42.61,39.48v4.72H42v-4.72H42.61z"/>
		<path class="st0" d="M44.44,42.72l-0.49,1.48h-0.63l1.61-4.72h0.73l1.61,4.72h-0.65l-0.5-1.48H44.44z M46,42.24l-0.47-1.36
			c-0.1-0.31-0.17-0.59-0.25-0.86h-0.01c-0.07,0.27-0.14,0.57-0.24,0.85l-0.46,1.37H46z"/>
	</g>
	<path class="st9" d="M75.77,87.43c-2.29,0-4.14-1.85-4.14-4.14c0-2.29,1.85-4.14,4.14-4.14c2.29,0,4.14,1.85,4.14,4.14l0,0l0,0
		C79.91,85.57,78.05,87.43,75.77,87.43 M56.43,90.68c-4.14,0-7.49-3.35-7.49-7.49c0-4.14,3.35-7.49,7.49-7.49
		c4.14,0,7.49,3.35,7.49,7.49l0,0l0,0C63.92,87.33,60.57,90.68,56.43,90.68 M78.06,1.13l-4.45,9.47h7.25v60.22v0.5H45.08l-4.55,9.68
		c0.44,0.66,0.7,1.45,0.7,2.3l0,0l0,0c0,2.14-1.63,3.9-3.71,4.12l-3.11,6.62c0.72,0.12,1.47,0.19,2.23,0.19h39.6
		c3.6,0,6.85-1.46,9.21-3.81c2.36-2.36,3.81-5.61,3.81-9.21V14.02c0-3.6-1.46-6.85-3.81-9.21C83.48,2.87,80.92,1.53,78.06,1.13"/>
	<path class="st10" d="M78.28,0.67l-0.21,0.46c2.86,0.4,5.42,1.74,7.37,3.69c2.36,2.36,3.81,5.61,3.81,9.21v67.17
		c0,3.6-1.46,6.85-3.81,9.21c-2.36,2.36-5.61,3.81-9.21,3.81l0,0h-39.6c-0.76,0-1.5-0.06-2.23-0.19l-0.22,0.46
		c0.79,0.14,1.61,0.23,2.44,0.23h39.6c7.47,0,13.52-6.05,13.52-13.52V14.02C89.75,7.25,84.77,1.66,78.28,0.67"/>
	<polyline class="st11" points="79.86,11.6 73.14,11.6 45.55,70.31 79.86,70.31 79.86,11.6 	"/>
	<path class="st10" d="M80.36,70.81L80.36,70.81v-0.5V70.81h0.5H80.36 M80.86,10.6h-7.25l-0.47,1h6.72v58.72H45.55l-0.47,1h35.79
		v-0.5V10.6"/>
	<path class="st12" d="M56.43,76.7c-1.79,0-3.41,0.73-4.59,1.9c-1.18,1.18-1.9,2.8-1.9,4.59c0,1.79,0.73,3.41,1.9,4.59
		c1.18,1.18,2.79,1.9,4.59,1.9c1.79,0,3.41-0.73,4.59-1.9c1.18-1.18,1.9-2.79,1.9-4.59h0.5l0,0h-0.5c0-1.79-0.73-3.41-1.9-4.59
		C59.84,77.43,58.22,76.7,56.43,76.7"/>
	<path class="st10" d="M63.92,83.19L63.92,83.19L63.92,83.19 M56.43,75.7c-4.14,0-7.49,3.35-7.49,7.49c0,4.14,3.35,7.49,7.49,7.49
		c4.14,0,7.49-3.35,7.49-7.49h-0.5h-0.5c0,1.79-0.73,3.41-1.9,4.59c-1.18,1.18-2.79,1.9-4.59,1.9c-1.79,0-3.41-0.73-4.59-1.9
		c-1.18-1.18-1.9-2.79-1.9-4.59c0-1.79,0.73-3.41,1.9-4.59c1.18-1.18,2.8-1.9,4.59-1.9c1.79,0,3.41,0.73,4.59,1.9
		c1.18,1.18,1.9,2.8,1.9,4.59h0.5h0.5l0,0C63.92,79.06,60.57,75.7,56.43,75.7"/>
	<path class="st12" d="M75.77,80.15c-1.73,0-3.14,1.41-3.14,3.14c0,1.73,1.41,3.14,3.14,3.14c1.73,0,3.14-1.41,3.14-3.14h0.5l0,0
		h-0.5C78.9,81.56,77.5,80.15,75.77,80.15"/>
	<path class="st10" d="M79.91,83.29L79.91,83.29L79.91,83.29 M75.77,79.15c-2.29,0-4.14,1.85-4.14,4.14c0,2.29,1.85,4.14,4.14,4.14
		c2.29,0,4.14-1.85,4.14-4.14h-0.5h-0.5c0,1.73-1.41,3.14-3.14,3.14c-1.73,0-3.14-1.41-3.14-3.14c0-1.73,1.41-3.13,3.14-3.14
		c1.73,0,3.14,1.41,3.14,3.14h0.5h0.5l0,0C79.91,81,78.05,79.15,75.77,79.15"/>
	<path class="st12" d="M40,82.12l-1.95,4.16c1.26-0.41,2.18-1.59,2.18-2.99h0.5l0,0h-0.5C40.23,82.87,40.14,82.48,40,82.12"/>
	<path class="st10" d="M41.23,83.29h-0.5h-0.5c0,1.4-0.92,2.58-2.18,2.99l-0.53,1.13C39.6,87.19,41.23,85.43,41.23,83.29
		 M41.23,83.29L41.23,83.29L41.23,83.29 M40.53,80.99L40,82.12c0.15,0.36,0.23,0.76,0.23,1.17h0.5h0.5l0,0
		C41.23,82.44,40.97,81.65,40.53,80.99"/>
	<g>
		<path class="st0" d="M58.64,19.12v4.08c0,0.93-0.05,1.6-0.15,2.02s-0.31,0.82-0.63,1.19c-0.32,0.37-0.7,0.63-1.15,0.79
			c-0.45,0.16-0.95,0.24-1.5,0.24c-0.73,0-1.34-0.08-1.82-0.25c-0.48-0.17-0.87-0.43-1.15-0.79c-0.29-0.36-0.49-0.73-0.61-1.13
			c-0.12-0.39-0.18-1.02-0.18-1.88v-4.26c0-1.12,0.1-1.96,0.29-2.52s0.58-1.01,1.15-1.34s1.27-0.51,2.09-0.51
			c0.67,0,1.27,0.12,1.8,0.35s0.92,0.52,1.19,0.86c0.26,0.34,0.44,0.72,0.53,1.14C58.6,17.52,58.64,18.19,58.64,19.12z M55.6,18.09
			c0-0.65-0.03-1.06-0.09-1.22c-0.06-0.16-0.21-0.25-0.44-0.25c-0.23,0-0.38,0.09-0.45,0.26c-0.07,0.17-0.11,0.58-0.11,1.2v5.96
			c0,0.71,0.03,1.14,0.1,1.28c0.07,0.15,0.21,0.22,0.44,0.22s0.38-0.09,0.45-0.26s0.11-0.56,0.11-1.15V18.09z"/>
		<path class="st0" d="M66.93,19.12v4.08c0,0.93-0.05,1.6-0.15,2.02s-0.31,0.82-0.63,1.19c-0.32,0.37-0.7,0.63-1.15,0.79
			c-0.45,0.16-0.95,0.24-1.5,0.24c-0.73,0-1.34-0.08-1.82-0.25c-0.48-0.17-0.87-0.43-1.15-0.79c-0.29-0.36-0.49-0.73-0.61-1.13
			c-0.12-0.39-0.18-1.02-0.18-1.88v-4.26c0-1.12,0.1-1.96,0.29-2.52s0.58-1.01,1.15-1.34s1.27-0.51,2.09-0.51
			c0.67,0,1.27,0.12,1.8,0.35s0.92,0.52,1.19,0.86c0.26,0.34,0.44,0.72,0.53,1.14C66.88,17.52,66.93,18.19,66.93,19.12z
			 M63.88,18.09c0-0.65-0.03-1.06-0.09-1.22c-0.06-0.16-0.21-0.25-0.44-0.25c-0.23,0-0.38,0.09-0.45,0.26
			c-0.07,0.17-0.11,0.58-0.11,1.2v5.96c0,0.71,0.03,1.14,0.1,1.28c0.07,0.15,0.21,0.22,0.44,0.22s0.38-0.09,0.45-0.26
			s0.11-0.56,0.11-1.15V18.09z"/>
		<path class="st0" d="M75.22,19.12v4.08c0,0.93-0.05,1.6-0.15,2.02s-0.31,0.82-0.63,1.19c-0.32,0.37-0.7,0.63-1.15,0.79
			c-0.45,0.16-0.95,0.24-1.5,0.24c-0.73,0-1.34-0.08-1.82-0.25c-0.48-0.17-0.87-0.43-1.15-0.79c-0.29-0.36-0.49-0.73-0.61-1.13
			c-0.12-0.39-0.18-1.02-0.18-1.88v-4.26c0-1.12,0.1-1.96,0.29-2.52s0.58-1.01,1.15-1.34s1.27-0.51,2.09-0.51
			c0.67,0,1.27,0.12,1.8,0.35s0.92,0.52,1.19,0.86c0.26,0.34,0.44,0.72,0.53,1.14C75.17,17.52,75.22,18.19,75.22,19.12z
			 M72.17,18.09c0-0.65-0.03-1.06-0.09-1.22c-0.06-0.16-0.21-0.25-0.44-0.25c-0.23,0-0.38,0.09-0.45,0.26
			c-0.07,0.17-0.11,0.58-0.11,1.2v5.96c0,0.71,0.03,1.14,0.1,1.28c0.07,0.15,0.21,0.22,0.44,0.22s0.38-0.09,0.45-0.26
			s0.11-0.56,0.11-1.15V18.09z"/>
	</g>
	<g>
		<path class="st0" d="M66.93,37.67v4.08c0,0.93-0.05,1.6-0.15,2.02s-0.31,0.82-0.63,1.19c-0.32,0.37-0.7,0.63-1.15,0.79
			c-0.45,0.16-0.95,0.24-1.5,0.24c-0.73,0-1.34-0.08-1.82-0.25c-0.48-0.17-0.87-0.43-1.15-0.79c-0.29-0.36-0.49-0.73-0.61-1.13
			c-0.12-0.4-0.18-1.02-0.18-1.88v-4.26c0-1.12,0.1-1.96,0.29-2.52s0.58-1.01,1.15-1.34c0.58-0.34,1.27-0.51,2.09-0.51
			c0.67,0,1.27,0.12,1.8,0.35s0.92,0.52,1.19,0.86c0.26,0.34,0.44,0.72,0.53,1.14C66.88,36.07,66.93,36.74,66.93,37.67z
			 M63.88,36.64c0-0.65-0.03-1.06-0.09-1.22c-0.06-0.16-0.21-0.25-0.44-0.25c-0.23,0-0.38,0.09-0.45,0.26
			c-0.07,0.17-0.11,0.57-0.11,1.2v5.96c0,0.71,0.03,1.14,0.1,1.28c0.07,0.15,0.21,0.22,0.44,0.22s0.38-0.08,0.45-0.26
			c0.07-0.17,0.11-0.56,0.11-1.15V36.64z"/>
		<path class="st0" d="M75.22,37.67v4.08c0,0.93-0.05,1.6-0.15,2.02s-0.31,0.82-0.63,1.19c-0.32,0.37-0.7,0.63-1.15,0.79
			c-0.45,0.16-0.95,0.24-1.5,0.24c-0.73,0-1.34-0.08-1.82-0.25c-0.48-0.17-0.87-0.43-1.15-0.79c-0.29-0.36-0.49-0.73-0.61-1.13
			c-0.12-0.4-0.18-1.02-0.18-1.88v-4.26c0-1.12,0.1-1.96,0.29-2.52s0.58-1.01,1.15-1.34c0.58-0.34,1.27-0.51,2.09-0.51
			c0.67,0,1.27,0.12,1.8,0.35s0.92,0.52,1.19,0.86c0.26,0.34,0.44,0.72,0.53,1.14C75.17,36.07,75.22,36.74,75.22,37.67z
			 M72.17,36.64c0-0.65-0.03-1.06-0.09-1.22c-0.06-0.16-0.21-0.25-0.44-0.25c-0.23,0-0.38,0.09-0.45,0.26
			c-0.07,0.17-0.11,0.57-0.11,1.2v5.96c0,0.71,0.03,1.14,0.1,1.28c0.07,0.15,0.21,0.22,0.44,0.22s0.38-0.08,0.45-0.26
			c0.07-0.17,0.11-0.56,0.11-1.15V36.64z"/>
	</g>
	<g>
		<path class="st0" d="M66.93,56.21v4.08c0,0.93-0.05,1.6-0.15,2.02c-0.1,0.42-0.31,0.82-0.63,1.19c-0.32,0.37-0.7,0.63-1.15,0.79
			c-0.45,0.16-0.95,0.24-1.5,0.24c-0.73,0-1.34-0.08-1.82-0.25c-0.48-0.17-0.87-0.43-1.15-0.79s-0.49-0.73-0.61-1.13
			c-0.12-0.4-0.18-1.02-0.18-1.88v-4.26c0-1.12,0.1-1.96,0.29-2.52s0.58-1.01,1.15-1.34c0.58-0.34,1.27-0.51,2.09-0.51
			c0.67,0,1.27,0.12,1.8,0.35s0.92,0.52,1.19,0.86c0.26,0.34,0.44,0.72,0.53,1.14C66.88,54.61,66.93,55.29,66.93,56.21z
			 M63.88,55.19c0-0.65-0.03-1.06-0.09-1.22c-0.06-0.16-0.21-0.25-0.44-0.25c-0.23,0-0.38,0.09-0.45,0.26
			c-0.07,0.17-0.11,0.57-0.11,1.2v5.96c0,0.71,0.03,1.14,0.1,1.28c0.07,0.15,0.21,0.22,0.44,0.22s0.38-0.08,0.45-0.26
			c0.07-0.17,0.11-0.56,0.11-1.16V55.19z"/>
		<path class="st0" d="M75.22,56.21v4.08c0,0.93-0.05,1.6-0.15,2.02c-0.1,0.42-0.31,0.82-0.63,1.19c-0.32,0.37-0.7,0.63-1.15,0.79
			c-0.45,0.16-0.95,0.24-1.5,0.24c-0.73,0-1.34-0.08-1.82-0.25c-0.48-0.17-0.87-0.43-1.15-0.79s-0.49-0.73-0.61-1.13
			c-0.12-0.4-0.18-1.02-0.18-1.88v-4.26c0-1.12,0.1-1.96,0.29-2.52s0.58-1.01,1.15-1.34c0.58-0.34,1.27-0.51,2.09-0.51
			c0.67,0,1.27,0.12,1.8,0.35s0.92,0.52,1.19,0.86c0.26,0.34,0.44,0.72,0.53,1.14C75.17,54.61,75.22,55.29,75.22,56.21z
			 M72.17,55.19c0-0.65-0.03-1.06-0.09-1.22c-0.06-0.16-0.21-0.25-0.44-0.25c-0.23,0-0.38,0.09-0.45,0.26
			c-0.07,0.17-0.11,0.57-0.11,1.2v5.96c0,0.71,0.03,1.14,0.1,1.28c0.07,0.15,0.21,0.22,0.44,0.22s0.38-0.08,0.45-0.26
			c0.07-0.17,0.11-0.56,0.11-1.16V55.19z"/>
	</g>
</g>
</svg>
